<?xml version="1.0" standalone="no"?>
<!DOCTYPE svg PUBLIC "-//W3C//DTD SVG 20010904//EN"
 "http://www.w3.org/TR/2001/REC-SVG-20010904/DTD/svg10.dtd">
<svg version="1.0" xmlns="http://www.w3.org/2000/svg"
 width="2362.000000pt" height="2362.000000pt" viewBox="0 0 2362.000000 2362.000000"
 preserveAspectRatio="xMidYMid meet">

<g transform="translate(0.000000,2362.000000) scale(0.100000,-0.100000)"
fill="#000000" stroke="none">
<path d="M7870 16163 c-1151 -72 -1950 -413 -2342 -998 -523 -780 -267 -1876
716 -3064 115 -139 173 -198 114 -116 -318 446 -531 898 -612 1305 -56 280
-51 579 15 805 90 311 263 568 521 778 679 550 1922 734 3419 506 1401 -212
2917 -758 4289 -1542 650 -372 1225 -775 1770 -1241 222 -189 718 -686 876
-876 418 -502 675 -932 831 -1385 145 -425 161 -845 44 -1193 -109 -326 -329
-600 -656 -815 -108 -71 -352 -192 -488 -242 -275 -100 -635 -180 -972 -214
-127 -13 224 -13 421 -1 1044 69 1829 392 2224 918 148 197 237 391 286 628
25 115 28 151 28 334 1 230 -12 331 -70 558 -87 341 -294 773 -551 1150 -602
883 -1576 1769 -2799 2545 -1238 786 -2707 1431 -4092 1797 -750 198 -1409
310 -2117 359 -118 8 -746 11 -855 4z"/>
<path d="M8160 15043 c-492 -37 -910 -141 -1245 -310 -308 -155 -559 -394
-695 -663 -57 -112 -111 -299 -135 -465 l-5 -40 37 45 c41 49 178 188 233 236
70 60 282 193 403 252 346 170 726 269 1257 328 189 21 739 29 975 15 1028
-64 2097 -319 3175 -756 1719 -698 3152 -1764 3833 -2851 272 -434 406 -841
407 -1229 1 -729 -500 -1279 -1408 -1545 -79 -23 -144 -41 -145 -39 -2 2 -46
51 -98 109 -205 227 -387 446 -806 973 -141 177 -289 363 -329 413 -40 50 -74
96 -76 101 -2 5 44 50 102 100 409 354 619 681 686 1068 23 127 15 380 -15
489 -47 176 -153 364 -273 485 -191 193 -509 318 -893 350 -74 6 -477 9 -1047
7 -881 -3 -929 -4 -948 -21 -45 -41 -12 -69 116 -101 166 -41 227 -96 261
-239 15 -63 17 -194 20 -1305 l4 -1235 -31 30 c-45 43 -96 154 -125 270 -28
111 -27 106 -495 3285 -71 487 -137 904 -146 927 -18 49 -56 83 -92 83 -52 0
-90 -61 -251 -400 -85 -179 -185 -388 -222 -465 -36 -77 -220 -462 -407 -855
-187 -393 -373 -785 -414 -870 -41 -85 -173 -363 -293 -617 -121 -255 -223
-463 -226 -463 -3 0 -142 282 -309 628 -167 345 -351 724 -408 842 -57 118
-272 562 -477 985 -205 424 -412 851 -460 949 -122 247 -177 302 -248 246 -38
-30 -53 -88 -96 -374 -47 -306 -87 -571 -376 -2467 -118 -779 -221 -1448 -229
-1486 -20 -94 -58 -196 -92 -244 -39 -57 -96 -87 -200 -105 -86 -15 -154 -37
-154 -49 0 -20 24 -45 52 -53 46 -14 1174 -9 1208 5 93 39 46 87 -110 113 -70
12 -143 41 -174 68 -10 9 -27 35 -37 57 -34 73 -27 173 62 845 32 250 75 574
94 720 19 146 65 490 101 765 36 275 67 502 70 504 2 3 9 0 14 -5 9 -10 316
-656 528 -1114 217 -469 784 -1592 930 -1840 95 -163 138 -170 219 -37 21 34
362 737 758 1561 396 825 725 1501 732 1503 7 3 14 -12 18 -39 92 -653 375
-2779 375 -2823 0 -75 -20 -144 -56 -197 -22 -31 -25 -43 -17 -56 23 -38 66
-43 360 -36 155 3 360 2 454 -2 l172 -7 -7 -436 c-7 -462 -9 -521 -31 -671
-24 -160 -55 -237 -115 -282 -14 -10 -68 -27 -120 -37 -111 -22 -126 -27 -134
-48 -8 -20 -1 -30 37 -50 29 -15 99 -17 742 -19 443 -1 722 2 743 8 39 12 59
42 41 64 -20 24 -44 34 -141 54 -232 50 -260 133 -278 825 -5 187 -9 1015 -9
1840 -1 1189 2 1505 12 1525 23 46 70 54 312 54 212 0 223 -1 308 -27 353
-109 583 -374 668 -767 20 -91 23 -135 23 -330 1 -243 -9 -319 -61 -484 -92
-294 -292 -500 -518 -536 -39 -6 -163 -10 -285 -9 -242 3 -260 -1 -260 -54 0
-25 11 -42 59 -87 56 -54 167 -121 234 -142 18 -5 64 -13 102 -18 66 -8 72
-11 110 -53 22 -24 97 -123 165 -221 595 -843 766 -1068 964 -1274 183 -191
363 -301 566 -348 63 -14 144 -18 520 -21 484 -4 492 -3 498 49 4 35 -23 49
-153 78 -191 43 -362 136 -548 298 -67 58 -94 88 -85 92 7 4 42 11 78 14 35 4
134 21 220 37 636 123 1109 344 1430 668 138 139 224 258 295 406 109 226 140
372 140 655 -1 172 -4 223 -23 319 -83 414 -294 852 -621 1287 -74 98 -92 120
-216 268 -407 485 -1062 1043 -1750 1491 -205 134 -587 365 -602 365 -3 0 -17
8 -31 19 -33 23 -276 153 -482 258 -334 170 -791 374 -1115 499 -49 19 -101
39 -115 45 -39 17 -360 132 -510 182 -878 298 -1831 496 -2675 557 -127 9
-667 11 -775 3z"/>
</g>
</svg>
